<?xml version="1.0" standalone="no"?>
<!DOCTYPE svg PUBLIC "-//W3C//DTD SVG 20010904//EN"
 "http://www.w3.org/TR/2001/REC-SVG-20010904/DTD/svg10.dtd">
<svg version="1.0" xmlns="http://www.w3.org/2000/svg"
 width="500.000000pt" height="500.000000pt" viewBox="0 0 500.000000 500.000000"
 preserveAspectRatio="xMidYMid meet">
<metadata>
Created by potrace 1.11, written by Peter Selinger 2001-2013
</metadata>
<g transform="translate(0.000000,500.000000) scale(0.100000,-0.100000)"
fill="#000000" stroke="none">
<path d="M2210 4515 l-285 -285 -75 0 -75 0 -498 -498 -497 -497 0 -75 0 -75
-285 -285 -285 -285 285 -285 285 -285 0 -75 0 -75 493 -493 492 -492 75 0 75
0 287 -287 288 -288 288 288 287 287 75 0 75 0 493 493 492 492 0 75 0 75 287
287 288 288 -288 288 -287 287 0 75 0 75 -493 493 -492 492 -75 0 -75 0 -285
285 -285 285 -285 -285z m540 -30 l255 -255 -515 0 -515 0 255 255 c140 140
257 255 260 255 3 0 120 -115 260 -255z m-1395 -825 l-530 -530 -3 47 -3 47
483 483 483 483 50 0 50 0 -530 -530z m1920 300 l230 -230 -1113 -1112 -1112
-1113 -230 230 -230 230 0 555 0 555 557 557 558 558 555 0 555 0 230 -230z
m113 37 l193 -193 -24 -22 -23 -21 -214 214 -215 215 45 0 45 0 193 -193z
m245 -289 c-22 -21 -23 -21 -43 -3 l-20 18 22 24 22 23 20 -20 20 -20 -21 -22z
m-70 -36 c15 -17 -49 -83 -1096 -1130 l-1113 -1113 -19 21 c-19 21 -18 22
1090 1130 611 611 1113 1110 1116 1110 3 0 13 -8 22 -18z m180 -30 c16 -17 15
-20 -6 -40 l-24 -22 -18 20 c-17 19 -17 21 0 40 22 25 28 25 48 2z m-1170
-1204 c-1111 -1111 -1112 -1112 -1133 -1093 l-21 19 1113 1113 1113 1113 20
-20 20 -20 -1112 -1112z m1589 741 l3 -49 -207 207 -207 207 21 23 22 24 182
-182 c181 -181 182 -182 186 -230z m-220 114 l218 -218 0 -560 0 -560 -553
-553 -552 -552 -560 0 -560 0 -220 220 -220 220 1110 1110 c610 611 1112 1110
1115 1110 3 0 103 -98 222 -217z m-3162 -775 l0 -513 -257 257 -258 258 255
255 c140 140 256 255 257 255 2 0 3 -231 3 -512z m3683 254 l257 -257 -260
-260 -260 -260 0 518 c0 284 1 517 3 517 1 0 118 -116 260 -258z m-3235 -1319
l-22 -24 -193 193 -193 193 0 45 0 45 215 -215 214 -214 -21 -23z m2455 -125
l-478 -478 -50 0 -50 0 525 525 525 525 3 -47 3 -47 -478 -478z m-2380 50
c-22 -21 -23 -21 -43 -3 l-20 18 22 24 22 23 20 -20 20 -20 -21 -22z m110 -66
c16 -17 15 -20 -6 -40 l-24 -22 -18 20 c-17 19 -17 21 0 40 22 25 28 25 48 2z
m260 -260 l207 -207 -48 3 c-46 4 -49 6 -229 185 l-182 181 21 23 c12 13 22
23 22 23 1 0 95 -93 209 -208z m1337 -245 c0 -1 -116 -118 -258 -260 l-257
-257 -260 260 -260 260 518 0 c284 0 517 -1 517 -3z"/>
<path d="M1936 3979 c-32 -25 -34 -61 -4 -89 24 -22 40 -25 69 -10 32 17 22
32 -16 24 -28 -5 -36 -3 -41 11 -11 28 10 50 45 47 38 -3 41 15 5 28 -32 13
-27 13 -58 -11z"/>
<path d="M2080 3935 c0 -40 4 -65 11 -65 6 0 13 9 16 20 3 11 9 20 14 20 5 0
14 -9 21 -20 7 -11 18 -20 25 -20 16 0 17 12 1 28 -9 9 -9 15 0 24 31 31 -6
78 -60 78 -28 0 -28 -1 -28 -65z m65 15 c0 -8 -8 -16 -17 -18 -13 -2 -18 3
-18 18 0 15 5 20 18 18 9 -2 17 -10 17 -18z"/>
<path d="M2247 3994 c-4 -4 -7 -34 -7 -66 l0 -58 45 0 c33 0 45 4 45 15 0 10
-10 15 -30 15 -36 0 -40 17 -5 22 14 2 26 8 26 13 0 6 -12 11 -26 13 -36 5
-31 22 6 22 43 0 32 24 -12 28 -19 2 -38 0 -42 -4z"/>
<path d="M2432 3987 c-10 -12 -52 -103 -52 -113 0 -11 29 -2 34 11 3 8 16 15
30 15 13 0 26 -7 30 -15 7 -20 26 -19 26 0 0 15 -47 115 -54 115 -2 0 -8 -6
-14 -13z m10 -59 c-7 -7 -12 -8 -12 -2 0 14 12 26 19 19 2 -3 -1 -11 -7 -17z"/>
<path d="M2550 3986 c0 -9 7 -16 15 -16 11 0 15 -12 15 -50 0 -38 4 -50 15
-50 11 0 15 12 15 50 0 44 3 50 21 50 42 0 12 25 -34 28 -37 2 -47 0 -47 -12z"/>
<path d="M2707 3994 c-4 -4 -7 -34 -7 -66 0 -78 24 -76 28 2 3 50 -6 78 -21
64z"/>
<path d="M2787 3993 c-9 -14 38 -118 53 -118 15 0 62 104 53 118 -8 14 -31
-13 -38 -44 -4 -16 -10 -29 -15 -29 -5 0 -11 13 -15 29 -7 31 -30 58 -38 44z"/>
<path d="M2957 3994 c-4 -4 -7 -34 -7 -66 l0 -58 45 0 c33 0 45 4 45 15 0 10
-10 15 -30 15 -36 0 -40 17 -5 22 14 2 26 8 26 13 0 6 -12 11 -26 13 -36 5
-31 22 6 22 43 0 32 24 -12 28 -19 2 -38 0 -42 -4z"/>
<path d="M1506 3169 c-87 -198 -160 -369 -163 -380 -5 -19 -1 -20 63 -17 l68
3 35 83 35 82 189 -2 188 -3 36 -82 35 -83 69 0 c38 0 69 3 69 8 0 4 -73 175
-162 379 l-163 373 -70 0 -70 0 -159 -361z m354 -100 c0 -5 -58 -9 -130 -9
-71 0 -130 3 -130 6 0 5 35 90 117 283 l15 35 64 -153 c35 -84 64 -157 64
-162z"/>
<path d="M2752 1913 l3 -378 63 -3 62 -3 0 276 0 277 117 -236 117 -236 43 0
43 0 114 233 114 232 1 -273 1 -273 63 3 62 3 3 378 2 377 -80 0 -80 0 -123
-246 -123 -245 -119 245 -120 245 -83 1 -82 0 2 -377z"/>
<path d="M2060 1105 l0 -65 33 0 c44 0 77 25 77 58 0 15 -4 32 -8 38 -11 18
-48 34 -76 34 -25 0 -26 -2 -26 -65z m75 0 c0 -23 -5 -31 -22 -33 -20 -3 -23
1 -23 33 0 32 3 36 23 33 17 -2 22 -10 22 -33z"/>
<path d="M2237 1164 c-4 -4 -7 -34 -7 -66 l0 -58 45 0 c33 0 45 4 45 15 0 10
-10 15 -30 15 -16 0 -30 5 -30 10 0 6 11 10 25 10 16 0 25 6 25 15 0 9 -9 15
-25 15 -14 0 -25 5 -25 10 0 6 14 10 31 10 43 0 32 24 -12 28 -19 2 -38 0 -42
-4z"/>
<path d="M2398 1159 c-29 -16 -22 -49 12 -62 39 -15 39 -31 0 -24 -38 8 -49
-9 -16 -25 20 -8 32 -8 51 0 36 16 33 51 -5 65 -36 14 -40 32 -6 23 31 -8 43
9 17 23 -24 13 -31 13 -53 0z"/>
<path d="M2530 1105 c0 -49 3 -66 13 -62 8 2 12 24 12 62 0 38 -4 60 -12 63
-10 3 -13 -14 -13 -63z"/>
<path d="M2651 1157 c-70 -36 -18 -142 54 -109 28 13 36 62 10 62 -8 0 -15 -9
-15 -20 0 -26 -36 -27 -49 -1 -16 28 9 56 42 47 35 -8 45 11 12 24 -31 12 -25
12 -54 -3z"/>
<path d="M2798 1164 c-5 -4 -8 -34 -8 -66 0 -45 3 -58 15 -58 11 0 15 11 15
37 l0 38 27 -38 c40 -57 55 -49 51 26 -3 66 -21 85 -26 29 l-3 -34 -32 37
c-18 20 -35 33 -39 29z"/>
</g>
</svg>
